<svg width="24" height="26" viewBox="0 0 24 26" fill="none" xmlns="http://www.w3.org/2000/svg">
<path d="M17.3333 15.6667H10.6666M16 19.6667H12M5.33331 1V25M3.99998 25H20C21.4727 25 22.6666 23.8061 22.6666 22.3333V3.66667C22.6666 2.19391 21.4727 1 20 1H3.99998C2.52722 1 1.33331 2.19391 1.33331 3.66667V22.3333C1.33331 23.8061 2.52722 25 3.99998 25ZM16.6666 9C16.6666 10.4728 15.4727 11.6667 14 11.6667C12.5272 11.6667 11.3333 10.4728 11.3333 9C11.3333 7.52724 12.5272 6.33333 14 6.33333C15.4727 6.33333 16.6666 7.52724 16.6666 9Z" stroke="#333333" stroke-width="2" stroke-linecap="round" stroke-linejoin="round"/>
</svg>
