<svg width="24" height="24" viewBox="0 0 24 24" fill="none" xmlns="http://www.w3.org/2000/svg">
<path d="M12 20.0033C14.9314 20.0035 17.6284 18.4012 19.0299 15.8265" stroke="#EF4444" stroke-width="1.5" stroke-linecap="round" stroke-linejoin="round"/>
<path d="M20.0033 12C20.0033 7.57992 16.4201 3.9967 12 3.9967" stroke="#EF4444" stroke-width="1.5" stroke-linecap="round" stroke-linejoin="round"/>
<path d="M12 3.9967C9.0686 3.99646 6.37163 5.59883 4.97006 8.17344" stroke="#EF4444" stroke-width="1.5" stroke-linecap="round" stroke-linejoin="round"/>
<path d="M3.99667 12C3.99667 16.4201 7.57989 20.0033 12 20.0033" stroke="#EF4444" stroke-width="1.5" stroke-linecap="round" stroke-linejoin="round"/>
<path d="M4.97006 8.17335C6.71953 4.95833 10.4271 3.33982 13.9742 4.2427C17.5213 5.14558 20.0039 8.33975 20.0033 11.9999" stroke="#EF4444" stroke-width="1.5" stroke-linecap="round" stroke-linejoin="round"/>
<path d="M3.99667 12C3.99611 15.6602 6.47869 18.8544 10.0258 19.7572C13.5729 20.6601 17.2805 19.0416 19.0299 15.8266" stroke="#EF4444" stroke-width="1.5" stroke-linecap="round" stroke-linejoin="round"/>
<path d="M8.04535 8.17346H4.50888V4.63599" stroke="#EF4444" stroke-width="1.5" stroke-linecap="round" stroke-linejoin="round"/>
<path d="M15.9547 15.8265H19.4911V19.364" stroke="#EF4444" stroke-width="1.5" stroke-linecap="round" stroke-linejoin="round"/>
</svg>
